<svg width="68" height="42" viewBox="0 0 68 42" fill="none" xmlns="http://www.w3.org/2000/svg">
<path id="Vector" d="M32.1368 38.0809C32.3012 38.2196 32.4768 38.3584 32.6497 38.4943C29.2027 40.7868 25.1531 42.0068 21.0126 42C17.7338 41.9999 14.5004 41.233 11.5712 39.7606C8.64198 38.2882 6.09818 36.1512 4.14327 33.5205C2.18836 30.8898 0.876589 27.8384 0.312877 24.6104C-0.250834 21.3823 -0.0508415 18.0672 0.896859 14.9303C1.84456 11.7933 3.51367 8.92151 5.77068 6.54458C8.02769 4.16765 10.81 2.35155 13.895 1.24155C16.98 0.131544 20.2821 -0.241561 23.5372 0.152075C26.7923 0.545711 29.9101 1.69516 32.6412 3.50849C32.4712 3.65291 32.3012 3.786 32.1736 3.93325C29.7191 6.04977 27.7498 8.67003 26.3998 11.6156C25.0498 14.5612 24.3508 17.7629 24.3504 21.0028C24.3512 24.2403 25.0466 27.44 26.3898 30.386C27.733 33.3321 29.6927 35.956 32.1368 38.0809ZM46.987 0.00283527C42.6801 0.00283527 38.6821 1.2941 35.3556 3.50849C35.5256 3.65291 35.6956 3.786 35.8232 3.93325C38.2777 6.04977 40.247 8.67003 41.597 11.6156C42.947 14.5612 43.646 17.7629 43.6464 21.0028C43.6445 24.2401 42.9486 27.4394 41.6055 30.3853C40.2624 33.3312 38.3032 35.9553 35.86 38.0809C35.6956 38.2196 35.52 38.3584 35.3471 38.4943C38.7937 40.7876 42.8436 42.0076 46.9842 42C49.7438 42.0011 52.4767 41.4588 55.0266 40.404C57.5765 39.3493 59.8934 37.8028 61.8451 35.8529C63.7967 33.903 65.3448 31.5878 66.4009 29.0398C67.457 26.4918 68.0004 23.7608 68 21.0028C67.9992 15.4335 65.7851 10.0925 61.8446 6.15442C57.9041 2.21632 52.5598 0.0035861 46.987 0.00283527ZM33.9984 4.50526C31.4953 6.46558 29.472 8.97009 28.0821 11.8286C26.6921 14.6872 25.9722 17.8246 25.9769 21.0028C25.9713 24.1815 26.6909 27.3197 28.0809 30.1788C29.4708 33.038 31.4946 35.5429 33.9984 37.5032C36.5016 35.5423 38.5249 33.0373 39.9148 30.1783C41.3047 27.3193 42.0246 24.1814 42.0199 21.0028C42.0246 17.8246 41.3046 14.6872 39.9147 11.8286C38.5248 8.97009 36.5015 6.46558 33.9984 4.50526Z" fill="#DEC5EA"/>
</svg>
