<svg width="118" height="48" viewBox="0 0 118 48" fill="none" xmlns="http://www.w3.org/2000/svg">
<path id="Vector" d="M21.5609 6.18837C20.178 7.8095 17.9651 9.08859 15.7523 8.9057C15.4758 6.71375 16.559 4.38435 17.8268 2.94566C19.2096 1.27886 21.63 0.0913312 23.5892 0C23.8197 2.28351 22.9206 4.52135 21.5609 6.18837ZM23.5662 9.33975C20.3622 9.15709 17.6194 11.1435 16.0981 11.1435C14.5539 11.1435 12.2257 9.43108 9.69033 9.47675C6.3944 9.52242 3.3287 11.3719 1.64605 14.3178C-1.81144 20.2093 0.747225 28.9326 4.08925 33.7279C5.72581 36.1027 7.68502 38.7059 10.2665 38.6146C12.7099 38.5233 13.6779 37.0391 16.6284 37.0391C19.6016 37.0391 20.4546 38.6146 23.0361 38.5689C25.7097 38.5233 27.3924 36.1943 29.029 33.8192C30.8958 31.1247 31.6565 28.4985 31.7026 28.3615C31.6565 28.3159 26.5397 26.3751 26.4936 20.529C26.4475 15.6423 30.5272 13.3131 30.7116 13.1761C28.4065 9.79641 24.8109 9.43108 23.5662 9.33975ZM42.0751 2.71733V38.318H47.6529V26.1467H55.3745C62.4276 26.1467 67.3833 21.3514 67.3833 14.4093C67.3833 7.46746 62.5197 2.71756 55.5589 2.71756H42.0749L42.0751 2.71733ZM47.6529 7.3759H54.0837C58.9242 7.3759 61.69 9.9334 61.69 14.4319C61.69 18.9304 58.9242 21.511 54.0606 21.511H47.6529V7.3759ZM77.5712 38.5918C81.0748 38.5918 84.3246 36.8336 85.7998 34.0476H85.9151V38.3178H91.0783V20.5975C91.0783 15.4596 86.9294 12.1484 80.5445 12.1484C74.6207 12.1484 70.2414 15.5053 70.08 20.118H75.1049C75.5198 17.9258 77.571 16.4871 80.3831 16.4871C83.7945 16.4871 85.7076 18.0628 85.7076 20.963V22.9266L78.7466 23.3376C72.2697 23.7258 68.7664 26.352 68.7664 30.9192C68.7664 35.5319 72.3849 38.5918 77.5712 38.5918ZM79.0692 34.3672C76.0962 34.3672 74.2059 32.9516 74.2059 30.782C74.2059 28.5444 76.0268 27.2427 79.5073 27.0372L85.7076 26.6491V28.6583C85.7076 31.9924 82.8496 34.3672 79.0695 34.3672H79.0692ZM97.97 48C103.41 48 105.968 45.945 108.204 39.7108L118 12.4909H112.33L105.761 33.5222H105.645L99.0764 12.4909H93.2449L102.695 38.4091L102.188 39.9848C101.335 42.6564 99.9522 43.6842 97.486 43.6842C97.0481 43.6842 96.1954 43.6385 95.8494 43.5928V47.863C96.1721 47.9543 97.5549 48 97.97 48Z" fill="#DEC5EA"/>
</svg>
