<svg width="22" height="24" viewBox="0 0 22 24" fill="none" xmlns="http://www.w3.org/2000/svg">
<g id="Vector">
<path id="Vector_2" d="M10.3956 0.000538727C10.3698 0.00119663 10.3434 0.00225936 10.3178 0.00377761C10.1806 0.0118749 10.0449 0.0336364 9.91376 0.068556C9.38928 0.208386 8.91329 0.571904 8.64174 1.03968L0.278288 15.4487C0.00678903 15.9165 -0.0721269 16.5101 0.0684055 17.0318C0.208938 17.5535 0.574414 18.027 1.0447 18.297L10.4941 23.7231C10.9644 23.9932 11.5613 24.0718 12.0858 23.9319C12.6103 23.7921 13.0878 23.4287 13.3594 22.9609L21.723 8.55179C21.9944 8.08402 22.0717 7.49044 21.9312 6.96877C21.7906 6.447 21.4252 5.97199 20.9549 5.70195L11.5054 0.275746C11.1747 0.0859652 10.7822 -0.00841894 10.3957 0.000589307L10.3956 0.000538727ZM10.8965 1.44611C11.1022 1.44154 11.3052 1.49352 11.4831 1.59631C12.0222 1.90588 12.2078 2.59117 11.8966 3.12721C11.7589 3.36481 11.5382 3.5438 11.2764 3.63015L11.1938 5.6355L10.2446 5.59603L10.3273 3.58111L8.6132 4.65978L8.10439 3.86118L9.81526 2.78409C9.76412 2.5271 9.80203 2.2524 9.94409 2.00761C10.0409 1.84051 10.1795 1.70106 10.3463 1.60273C10.5131 1.50439 10.7026 1.45048 10.8965 1.44621V1.44611ZM14.5074 5.89962L14.5169 6.8675C14.4661 7.05627 14.5174 7.51225 14.6854 8.07729C14.8535 8.64228 15.1108 9.31856 15.3405 10.0336C15.8001 11.4638 16.195 13.1116 15.3533 14.4618C14.5574 15.7388 13.198 16.1692 12.0668 15.8172C11.3324 15.5887 10.7037 15.0365 10.3511 14.2658L10.2319 17.1552L6.89598 15.2384L9.35896 13.6869C8.50788 13.7575 7.69618 13.484 7.11222 12.9688C6.21011 12.173 5.87923 10.762 6.69398 9.45636C7.55259 8.08063 9.15559 7.61625 10.5928 7.31341C11.3113 7.16209 12.0042 7.04974 12.5659 6.91017C13.1276 6.77059 13.5094 6.54832 13.7219 6.41041L14.5073 5.89962H14.5074ZM13.5773 7.5618L10.7994 9.62873L11.5706 10.0716L10.7645 11.4602C9.344 11.704 8.07595 10.3392 8.96942 8.90757C9.00726 8.84709 9.0481 8.78852 9.09178 8.73206C8.41884 9.0099 7.8536 9.39072 7.50176 9.9546C6.89394 10.9284 7.14438 11.7335 7.74345 12.262C8.34231 12.7904 9.31897 12.9875 10.2795 12.4359L10.9918 12.0263V12.8455C10.9918 13.993 11.6156 14.6852 12.3512 14.9141C13.087 15.143 13.944 14.9287 14.5455 13.9636C14.8855 13.4182 14.9371 12.725 14.8333 11.9677C14.7972 12.0492 14.7552 12.1279 14.7077 12.2034C13.8278 13.6151 12.0599 13.2925 11.5865 11.9362L12.3942 10.5444L13.1654 10.9873L13.5773 7.5616V7.5618ZM10.7502 18.4631L11.6994 18.501L11.6167 20.5159L13.3307 19.4373L13.8395 20.2359L12.1287 21.3145C12.1793 21.5711 12.1417 21.8469 12 22.091C11.6887 22.6272 10.9982 22.8103 10.4592 22.5007C9.92012 22.1911 9.73619 21.506 10.0474 20.9698C10.1851 20.7322 10.4058 20.5532 10.6675 20.4669L10.7502 18.4631V18.4631Z" fill="#DEC5EA"/>
</g>
</svg>
