<svg width="69" height="58" viewBox="0 0 69 58" fill="none" xmlns="http://www.w3.org/2000/svg">
<g id="Group 69">
<path id="Vector" d="M50.3696 43.8926C53.4257 39.5211 55.0632 34.3172 55.0603 28.9854C55.0574 23.6535 53.4143 18.4513 50.3534 14.0832M47.4361 10.6157C43.7958 6.97944 39.1578 4.50303 34.1085 3.4997C29.0591 2.49637 23.8254 3.01117 19.0689 4.979C14.3125 6.94684 10.2472 10.2793 7.38691 14.555C4.52666 18.8307 3 23.8576 3 29C3 34.1424 4.52666 39.1693 7.38691 43.445C10.2472 47.7207 14.3125 51.0532 19.0689 53.021C23.8254 54.9888 29.0591 55.5036 34.1085 54.5003C39.1578 53.497 43.7958 51.0206 47.4361 47.3843" stroke="#DEC5EA" stroke-width="5" stroke-linecap="round" stroke-linejoin="round"/>
<path id="Vector_2" d="M38.4758 17.5811C35.8775 15.4369 32.6254 14.2407 29.2554 14.1898C25.8854 14.1388 22.5985 15.236 19.9364 17.3007C17.2743 19.3653 15.3957 22.2742 14.6102 25.5481C13.8248 28.8219 14.1793 32.2653 15.6153 35.311C17.0513 38.3567 19.4832 40.8228 22.5103 42.3032C25.5374 43.7835 28.979 44.1897 32.2681 43.4547C35.5572 42.7198 38.4975 40.8876 40.6046 38.2601C42.7117 35.6325 43.8598 32.3664 43.8598 28.9999H30.8303M59.3381 50.1513C63.6787 43.9425 66.0044 36.5512 66 28.9783C65.9957 21.4055 63.6616 14.0169 59.3138 7.81299" stroke="#DEC5EA" stroke-width="5" stroke-linecap="round" stroke-linejoin="round"/>
</g>
</svg>
