<svg width="74" height="74" viewBox="0 0 74 74" fill="none" xmlns="http://www.w3.org/2000/svg">
<g id="Vector" filter="url(#filter0_dd_347_547)">
<path d="M44.207 30.2669L44.8159 30.5052C45.1354 30.6303 45.4785 30.6833 45.8209 30.6606C46.1633 30.6379 46.4964 30.54 46.7966 30.3739C47.0968 30.2078 47.3566 29.9776 47.5576 29.6997C47.7586 29.4217 47.8958 29.1029 47.9595 28.7659C48.0231 28.429 48.0117 28.0821 47.926 27.75C47.8402 27.418 47.6823 27.1089 47.4634 26.8448C47.2446 26.5807 46.9701 26.368 46.6597 26.2221C46.3492 26.0761 46.0104 26.0004 45.6673 26.0002L44.207 30.2669ZM44.207 30.2669L43.7445 30.7292M44.207 30.2669L43.7445 30.7292M43.7445 30.7292L37.6696 36.8015L37.0799 37.3909M43.7445 30.7292L37.0799 37.3909M37.0799 37.3909L37.5537 38.0769M37.0799 37.3909L37.5537 38.0769M37.5537 38.0769C38.4155 39.3251 38.7979 40.8422 38.6307 42.3496L38.5388 43.1782M37.5537 38.0769L38.5388 43.1782M38.5388 43.1782L39.3374 43.4177M38.5388 43.1782L39.3374 43.4177M39.3374 43.4177L42.8362 44.4669L43.463 44.6548M39.3374 43.4177L43.463 44.6548M43.463 44.6548L43.8861 44.1557M43.463 44.6548L43.8861 44.1557M43.8861 44.1557C44.2327 43.7469 44.7096 43.4699 45.2366 43.3712C45.7635 43.2725 46.3084 43.3583 46.7796 43.614C47.2507 43.8697 47.6194 44.2798 47.8236 44.7752C48.0279 45.2706 48.0552 45.8213 47.9012 46.3345C47.7471 46.8478 47.421 47.2924 46.9776 47.5936C46.5341 47.8948 46.0005 48.0341 45.4663 47.9882C44.9322 47.9423 44.4301 47.7139 44.0446 47.3415C43.6591 46.9691 43.4137 46.4754 43.3495 45.9434L43.2711 45.2937M43.8861 44.1557L43.2711 45.2937M43.2711 45.2937L42.6444 45.1055M43.2711 45.2937L42.6444 45.1055M42.6444 45.1055L39.1469 44.055L38.3493 43.8154M42.6444 45.1055L38.3493 43.8154M38.3493 43.8154L37.9694 44.5565M38.3493 43.8154L37.9694 44.5565M37.9694 44.5565C37.3309 45.8017 36.2978 46.8005 35.0314 47.3966C33.765 47.9928 32.3368 48.1528 30.9699 47.8516C29.6029 47.5504 28.3743 46.8049 27.476 45.7318C26.58 44.6614 26.0629 43.325 26.005 41.9306L26.0002 41.664L26.005 41.3988C26.0516 40.2819 26.3931 39.1972 26.9949 38.2549C27.5987 37.3097 28.4427 36.5417 29.4407 36.0295L30.1814 35.6494M37.9694 44.5565L30.1814 35.6494M30.1814 35.6494L29.9419 34.8521M30.1814 35.6494L29.9419 34.8521M29.9419 34.8521L28.8912 31.3541L28.7028 30.7269M29.9419 34.8521L28.7028 30.7269M28.7028 30.7269L28.0526 30.6489M28.7028 30.7269L28.0526 30.6489M28.0526 30.6489C27.5147 30.5843 27.0161 30.3344 26.6425 29.9422C26.2728 29.554 26.0484 29.0505 26.0068 28.5165L26.0005 28.3314L26.0056 28.1639C26.0331 27.7852 26.1527 27.4188 26.3541 27.0966C26.5583 26.7699 26.8403 26.4988 27.1749 26.3076C27.5095 26.1163 27.8863 26.0109 28.2716 26.0008C28.6569 25.9907 29.0387 26.0761 29.3829 26.2495C29.7271 26.4228 30.023 26.6787 30.2441 26.9942C30.4652 27.3098 30.6047 27.6751 30.6502 28.0577C30.6956 28.4402 30.6456 28.8281 30.5045 29.1866C30.3634 29.5451 30.1358 29.8632 29.8418 30.1123L29.3423 30.5354M28.0526 30.6489L29.3423 30.5354M29.3423 30.5354L29.5304 31.1624M29.3423 30.5354L29.5304 31.1624M29.5304 31.1624L30.5797 34.6618L30.8192 35.4604M29.5304 31.1624L30.8192 35.4604M30.8192 35.4604L31.6478 35.3685M30.8192 35.4604L31.6478 35.3685M31.6478 35.3685C33.1557 35.2013 34.6733 35.5837 35.9218 36.4454L36.6076 36.9188M31.6478 35.3685L36.6076 36.9188M36.6076 36.9188L37.1969 36.3295M36.6076 36.9188L37.1969 36.3295M37.1969 36.3295L43.2705 30.2559L43.7337 29.7927M37.1969 36.3295L43.7337 29.7927M43.7337 29.7927L43.4941 29.183M43.7337 29.7927L43.4941 29.183M43.4941 29.183C43.4085 28.9652 43.3564 28.7357 43.3397 28.5023M43.4941 29.183L43.3397 28.5023M43.3397 28.5023L43.3345 28.333L43.3397 28.164C43.3821 27.5791 43.6435 27.0313 44.0721 26.6302C44.5045 26.2254 45.0748 26.0002 45.6672 26.0002L43.3397 28.5023Z" stroke="#FAFF00" stroke-width="2"/>
</g>
<defs>
<filter id="filter0_dd_347_547" x="0" y="0" width="74" height="74" filterUnits="userSpaceOnUse" color-interpolation-filters="sRGB">
<feFlood flood-opacity="0" result="BackgroundImageFix"/>
<feColorMatrix in="SourceAlpha" type="matrix" values="0 0 0 0 0 0 0 0 0 0 0 0 0 0 0 0 0 0 127 0" result="hardAlpha"/>
<feOffset/>
<feGaussianBlur stdDeviation="12.5"/>
<feColorMatrix type="matrix" values="0 0 0 0 0.980392 0 0 0 0 1 0 0 0 0 0 0 0 0 1 0"/>
<feBlend mode="normal" in2="BackgroundImageFix" result="effect1_dropShadow_347_547"/>
<feColorMatrix in="SourceAlpha" type="matrix" values="0 0 0 0 0 0 0 0 0 0 0 0 0 0 0 0 0 0 127 0" result="hardAlpha"/>
<feOffset/>
<feGaussianBlur stdDeviation="12.5"/>
<feColorMatrix type="matrix" values="0 0 0 0 0.98 0 0 0 0 1 0 0 0 0 0 0 0 0 1 0"/>
<feBlend mode="normal" in2="effect1_dropShadow_347_547" result="effect2_dropShadow_347_547"/>
<feBlend mode="normal" in="SourceGraphic" in2="effect2_dropShadow_347_547" result="shape"/>
</filter>
</defs>
</svg>
