<svg width="75" height="73" viewBox="0 0 75 73" fill="none" xmlns="http://www.w3.org/2000/svg">
<g id="Vector" filter="url(#filter0_dd_347_546)">
<mask id="path-1-inside-1_347_546" fill="white">
<path d="M48.5186 27.5408L46.9147 26.8632V37.7885L49.8233 30.6986C50.3141 29.4645 49.7515 28.0489 48.5186 27.5408ZM25.1776 32.0174L31.1146 46.4755C31.2894 46.9154 31.5876 47.2941 31.9725 47.5649C32.3574 47.8358 32.8123 47.987 33.2811 48C33.5923 48 33.9155 47.9395 34.2267 47.8064L43.0484 44.1163C43.9462 43.7412 44.4968 42.8459 44.5207 41.9506C44.5327 41.636 44.4728 41.2851 44.3651 40.9705L38.3802 26.5124C38.211 26.0696 37.9139 25.6885 37.5275 25.4188C37.1411 25.149 36.6833 25.0031 36.2137 25C35.9025 25 35.5913 25.0726 35.292 25.1815L26.4823 28.8716C25.8967 29.114 25.4303 29.5816 25.1856 30.1715C24.9409 30.7614 24.9381 31.4253 25.1776 32.0174ZM44.5088 27.4198C44.5088 26.778 44.2565 26.1625 43.8076 25.7087C43.3586 25.2549 42.7497 25 42.1148 25H40.3792L44.5088 35.0905"/>
</mask>
<path d="M48.5186 27.5408L47.7404 29.3831L47.7484 29.3865L47.7565 29.3899L48.5186 27.5408ZM46.9147 26.8632L47.6929 25.0209L44.9147 23.8473V26.8632H46.9147ZM46.9147 37.7885H44.9147L48.765 38.5476L46.9147 37.7885ZM49.8233 30.6986L51.6737 31.4577L51.6778 31.4477L51.6818 31.4376L49.8233 30.6986ZM25.1776 32.0174L23.3235 32.7674L23.3275 32.7771L25.1776 32.0174ZM31.1146 46.4755L32.9732 45.7369L32.969 45.7263L32.9647 45.7158L31.1146 46.4755ZM33.2811 48L33.2257 49.9992L33.2534 50H33.2811V48ZM34.2267 47.8064L33.4549 45.9613L33.4476 45.9644L33.4403 45.9675L34.2267 47.8064ZM43.0484 44.1163L42.2774 42.2708L42.2766 42.2712L43.0484 44.1163ZM44.5207 41.9506L42.5222 41.8745L42.5217 41.8858L42.5214 41.8971L44.5207 41.9506ZM44.3651 40.9705L46.2572 40.3226L46.237 40.2634L46.2131 40.2056L44.3651 40.9705ZM38.3802 26.5124L36.512 27.2262L36.5218 27.2519L36.5323 27.2773L38.3802 26.5124ZM36.2137 25L36.2269 23H36.2137V25ZM35.292 25.1815L34.6081 23.302L34.5633 23.3184L34.5193 23.3368L35.292 25.1815ZM26.4823 28.8716L27.2472 30.7196L27.255 30.7164L26.4823 28.8716ZM42.1148 25V23V25ZM40.3792 25V23H37.3997L38.5282 25.7575L40.3792 25ZM49.2969 25.6984L47.6929 25.0209L46.1364 28.7056L47.7404 29.3831L49.2969 25.6984ZM44.9147 26.8632V37.7885H48.9147V26.8632H44.9147ZM48.765 38.5476L51.6737 31.4577L47.973 29.9395L45.0643 37.0294L48.765 38.5476ZM51.6818 31.4376C52.5589 29.2319 51.5708 26.6355 49.2808 25.6917L47.7565 29.3899C47.9323 29.4623 48.0693 29.6971 47.9649 29.9595L51.6818 31.4376ZM23.3275 32.7771L29.2645 47.2352L32.9647 45.7158L27.0277 31.2577L23.3275 32.7771ZM29.256 47.2142C29.5736 48.0133 30.1167 48.7046 30.8216 49.2006L33.1234 45.9293C33.0586 45.8836 33.0052 45.8175 32.9732 45.7369L29.256 47.2142ZM30.8216 49.2006C31.5268 49.6968 32.3624 49.9753 33.2257 49.9992L33.3366 46.0008C33.2622 45.9987 33.1881 45.9748 33.1234 45.9293L30.8216 49.2006ZM33.2811 50C33.8505 50 34.4424 49.8894 35.0131 49.6453L33.4403 45.9675C33.3886 45.9896 33.3342 46 33.2811 46V50ZM34.9985 49.6515L43.8202 45.9613L42.2766 42.2712L33.4549 45.9613L34.9985 49.6515ZM43.8194 45.9617C45.4925 45.2627 46.4765 43.6319 46.52 42.004L42.5214 41.8971C42.5198 41.9591 42.497 42.0451 42.4437 42.1258C42.3933 42.2021 42.3335 42.2474 42.2774 42.2708L43.8194 45.9617ZM46.5193 42.0266C46.542 41.4283 46.4314 40.8311 46.2572 40.3226L42.473 41.6185C42.5143 41.7391 42.5233 41.8436 42.5222 41.8745L46.5193 42.0266ZM46.2131 40.2056L40.2282 25.7474L36.5323 27.2773L42.5172 41.7355L46.2131 40.2056ZM40.2485 25.7985C39.9373 24.9839 39.3892 24.2793 38.6723 23.7788L36.3827 27.0587C36.4386 27.0977 36.4848 27.1552 36.512 27.2262L40.2485 25.7985ZM38.6723 23.7788C37.9551 23.2781 37.103 23.0058 36.2269 23L36.2005 27C36.2636 27.0004 36.3271 27.0199 36.3827 27.0587L38.6723 23.7788ZM36.2137 23C35.5978 23 35.0475 23.1422 34.6081 23.302L35.9759 27.0609C36.1351 27.003 36.2072 27 36.2137 27V23ZM34.5193 23.3368L25.7096 27.0269L27.255 30.7164L36.0647 27.0262L34.5193 23.3368ZM25.7174 27.0237C24.6376 27.4706 23.7843 28.3297 23.3382 29.4052L27.033 30.9377C27.0763 30.8334 27.1557 30.7575 27.2472 30.7196L25.7174 27.0237ZM23.3382 29.4052C22.8924 30.4801 22.8871 31.6887 23.3235 32.7674L27.0316 31.2673C26.989 31.1619 26.9895 31.0426 27.033 30.9377L23.3382 29.4052ZM46.5088 27.4198C46.5088 26.2545 46.051 25.1326 45.2294 24.3021L42.3858 27.1153C42.4621 27.1925 42.5088 27.3016 42.5088 27.4198H46.5088ZM45.2294 24.3021C44.407 23.4709 43.2871 23 42.1148 23V27C42.2123 27 42.3102 27.039 42.3858 27.1153L45.2294 24.3021ZM42.1148 23H40.3792V27H42.1148V23ZM38.5282 25.7575L42.6578 35.848L46.3597 34.333L42.2302 24.2425L38.5282 25.7575Z" fill="#FF0000" mask="url(#path-1-inside-1_347_546)"/>
</g>
<defs>
<filter id="filter0_dd_347_546" x="0" y="0" width="75" height="73" filterUnits="userSpaceOnUse" color-interpolation-filters="sRGB">
<feFlood flood-opacity="0" result="BackgroundImageFix"/>
<feColorMatrix in="SourceAlpha" type="matrix" values="0 0 0 0 0 0 0 0 0 0 0 0 0 0 0 0 0 0 127 0" result="hardAlpha"/>
<feOffset/>
<feGaussianBlur stdDeviation="12.5"/>
<feColorMatrix type="matrix" values="0 0 0 0 1 0 0 0 0 0 0 0 0 0 0 0 0 0 1 0"/>
<feBlend mode="normal" in2="BackgroundImageFix" result="effect1_dropShadow_347_546"/>
<feColorMatrix in="SourceAlpha" type="matrix" values="0 0 0 0 0 0 0 0 0 0 0 0 0 0 0 0 0 0 127 0" result="hardAlpha"/>
<feOffset/>
<feGaussianBlur stdDeviation="12.5"/>
<feColorMatrix type="matrix" values="0 0 0 0 1 0 0 0 0 0 0 0 0 0 0 0 0 0 1 0"/>
<feBlend mode="normal" in2="effect1_dropShadow_347_546" result="effect2_dropShadow_347_546"/>
<feBlend mode="normal" in="SourceGraphic" in2="effect2_dropShadow_347_546" result="shape"/>
</filter>
</defs>
</svg>
