<svg width="74" height="74" viewBox="0 0 74 74" fill="none" xmlns="http://www.w3.org/2000/svg">
<g id="Vector" filter="url(#filter0_dd_347_551)">
<path d="M44.687 32.2278C44.6922 33.1495 44.837 33.4924 45.3779 33.8088C45.7208 34.0077 45.8391 34.0292 46.9157 34.0772C47.5586 34.1046 48.1587 34.168 48.2556 34.2221C48.5607 34.3884 48.8282 34.7845 48.925 35.2132L44.687 32.2278ZM44.687 32.2278C44.6819 30.459 43.9473 28.8145 42.496 27.3355L44.687 32.2278ZM31.1222 47.888L31.125 47.8885C31.122 47.888 31.1227 47.888 31.1281 47.8886C31.1413 47.8901 31.1829 47.8947 31.2654 47.9005C31.3674 47.9078 31.5031 47.915 31.6709 47.922C32.0058 47.9361 32.4486 47.9485 32.9673 47.9591C34.0037 47.9802 35.3256 47.9935 36.6564 47.9982C37.9871 48.0028 39.3224 47.9988 40.3854 47.9853C41.4865 47.9713 42.2078 47.9473 42.3843 47.924C43.8927 47.7195 45.0576 47.1268 46.1902 45.9707L31.1222 47.888ZM31.1222 47.888C29.105 47.5252 27.0305 45.8225 26.306 43.5191M31.1222 47.888L26.306 43.5191M26.306 43.5191C26.0271 42.6296 25.9769 42.0282 26.0091 36.5105L26.306 43.5191ZM47.8397 35.1789C47.886 35.2475 47.9248 35.3331 47.9462 35.419L26.0091 36.5103C26.0224 34.3368 26.0359 33.0758 26.0596 32.3001C26.0837 31.5163 26.1175 31.298 26.1477 31.1704C26.6851 28.9665 28.1406 27.273 30.1557 26.4761L30.1557 26.4761L30.1584 26.4751C31.2122 26.0549 31.842 25.9671 35.584 26.0102L35.5843 26.0102C36.7699 26.0236 37.5221 26.038 38.0148 26.0605C38.2608 26.0717 38.427 26.0843 38.5419 26.0976C38.6523 26.1103 38.6915 26.121 38.6937 26.1216C38.6938 26.1217 38.6938 26.1217 38.6939 26.1217L38.6955 26.1222C39.8433 26.4715 40.8575 27.0918 41.7816 28.0353L41.7822 28.0359C43.0836 29.3622 43.6828 30.7663 43.687 32.2307L43.687 32.2334C43.6897 32.7142 43.7239 33.2052 43.9144 33.6437C44.1304 34.141 44.4878 34.4467 44.873 34.672L44.8761 34.6738C45.1055 34.8069 45.335 34.9209 45.6993 34.9846C45.984 35.0344 46.3563 35.0532 46.8712 35.0762L46.8731 35.0763C47.1774 35.0892 47.4663 35.1106 47.6836 35.1339C47.7353 35.1395 47.7804 35.1449 47.8189 35.1499C47.8254 35.1584 47.8323 35.168 47.8397 35.1789ZM34.9625 35.0557C36.0972 35.0506 36.7485 35.0456 37.1422 35.0196C37.3414 35.0064 37.5336 34.9849 37.715 34.9353C37.9273 34.8772 38.0752 34.7945 38.1855 34.7249L38.1855 34.7249L38.189 34.7227C38.5176 34.5135 38.8138 34.2418 39.0212 33.8775C39.2307 33.5096 39.3112 33.115 39.3112 32.7216C39.3112 32.308 39.2305 31.8826 38.9915 31.4931C38.7532 31.1047 38.4128 30.8423 38.0492 30.6576C37.9504 30.6066 37.806 30.5339 37.6108 30.4802C37.4246 30.4291 37.2328 30.4059 37.0246 30.3922C36.6259 30.3659 35.9738 30.3653 34.8181 30.3653C33.5513 30.3653 32.7771 30.3667 32.2811 30.4359C32.0063 30.4743 31.7404 30.5416 31.4857 30.6822C31.4154 30.721 31.3511 30.7627 31.2927 30.8051H31.25L30.9566 31.1013C30.3302 31.7335 30.2234 32.6054 30.4047 33.3027C30.586 33.9996 31.1045 34.7104 31.9627 34.9536L31.9742 34.9568L31.9857 34.9598C32.1417 35 32.3527 35.0123 32.473 35.0193C32.6405 35.0291 32.8545 35.0371 33.1013 35.0432C33.5959 35.0555 34.2451 35.0609 34.9625 35.0557ZM42.1031 43.4985L42.2815 43.4698L42.4385 43.3804C43.7793 42.6175 44.0438 40.7484 42.8889 39.6696L42.8875 39.6683C42.881 39.6622 42.874 39.6557 42.8665 39.6487C42.7614 39.55 42.5669 39.3674 42.2717 39.2388C41.9795 39.1115 41.6557 39.0621 41.3014 39.0336C40.6103 38.9781 39.3883 38.9794 37.0942 38.9819L36.9763 38.982H36.9761C34.6646 38.985 33.4106 38.9884 32.6952 39.0376C32.3402 39.062 32.0283 39.1019 31.7555 39.1966C31.4306 39.3094 31.2321 39.475 31.0953 39.5983L31.0953 39.5983L31.091 39.6022C30.7948 39.8722 30.5924 40.2241 30.4718 40.553C30.3523 40.8785 30.2763 41.2821 30.3364 41.6863C30.3965 42.1044 30.5922 42.4791 30.8123 42.7644C31.0331 43.0505 31.3427 43.3299 31.7202 43.4956C31.9376 43.5916 32.1947 43.6194 32.3571 43.635C32.5701 43.6556 32.8563 43.6711 33.2339 43.6821C33.9921 43.7042 35.1777 43.7093 37.0054 43.6878L41.1575 43.6398L41.2317 43.639L41.305 43.6271L42.1031 43.4985Z" stroke="#0500FF" stroke-width="2"/>
</g>
<defs>
<filter id="filter0_dd_347_551" x="0" y="0" width="74" height="74" filterUnits="userSpaceOnUse" color-interpolation-filters="sRGB">
<feFlood flood-opacity="0" result="BackgroundImageFix"/>
<feColorMatrix in="SourceAlpha" type="matrix" values="0 0 0 0 0 0 0 0 0 0 0 0 0 0 0 0 0 0 127 0" result="hardAlpha"/>
<feOffset/>
<feGaussianBlur stdDeviation="12.5"/>
<feColorMatrix type="matrix" values="0 0 0 0 0.02 0 0 0 0 0 0 0 0 0 1 0 0 0 1 0"/>
<feBlend mode="normal" in2="BackgroundImageFix" result="effect1_dropShadow_347_551"/>
<feColorMatrix in="SourceAlpha" type="matrix" values="0 0 0 0 0 0 0 0 0 0 0 0 0 0 0 0 0 0 127 0" result="hardAlpha"/>
<feOffset/>
<feGaussianBlur stdDeviation="12.5"/>
<feColorMatrix type="matrix" values="0 0 0 0 0.02 0 0 0 0 0 0 0 0 0 1 0 0 0 1 0"/>
<feBlend mode="normal" in2="effect1_dropShadow_347_551" result="effect2_dropShadow_347_551"/>
<feBlend mode="normal" in="SourceGraphic" in2="effect2_dropShadow_347_551" result="shape"/>
</filter>
</defs>
</svg>
