<svg width="76" height="72" viewBox="0 0 76 72" fill="none" xmlns="http://www.w3.org/2000/svg">
<g id="Vector" filter="url(#filter0_dd_347_552)">
<path d="M38.0156 29.2832L37.7112 29.82C37.6944 29.8544 37.6773 29.8893 37.6601 29.9246C37.2897 30.6831 36.8197 31.6455 36.2389 32.5281C35.63 33.4533 34.8298 34.4024 33.7722 34.9444L33.7717 34.9446C32.8677 35.4074 31.8368 35.4925 30.923 35.4565C30.0092 35.4205 29.0974 35.2564 28.3834 35.1278L28.3641 35.1243L27.5996 34.9867L27.5438 34.212C27.5342 34.0788 27.4867 33.949 27.4042 33.8376C27.3215 33.7259 27.2065 33.6366 27.0704 33.5824C26.9342 33.5282 26.7841 33.5121 26.6379 33.5368C26.4918 33.5616 26.3579 33.6256 26.2509 33.7191C26.144 33.8125 26.0684 33.9311 26.0297 34.0602C25.9911 34.1892 25.9901 34.3256 26.0269 34.455C26.0637 34.5845 26.1376 34.704 26.243 34.7987C26.3486 34.8936 26.4815 34.9594 26.6272 34.986L27.1729 35.086L27.3769 35.602L30.861 44.4136C31.044 44.8762 31.3669 45.2773 31.7907 45.5617C32.2147 45.8463 32.7189 45.9999 33.2369 46L38.0156 29.2832ZM38.0156 29.2832L38.2786 29.7904L38.296 29.8241C38.6881 30.5804 39.1838 31.5367 39.7945 32.411C40.4095 33.2914 41.2025 34.1808 42.2277 34.706L42.2281 34.7061C43.1145 35.1598 44.1173 35.2825 45.0256 35.2869C45.9331 35.2913 46.8431 35.1759 47.5754 35.083L47.589 35.0813L48.3773 34.9813L48.458 34.1908C48.4715 34.0587 48.5224 33.9309 48.6074 33.8221C48.6926 33.713 48.8092 33.6268 48.9458 33.5759C49.0825 33.5249 49.2319 33.5119 49.3766 33.5392C49.5212 33.5664 49.6529 33.6321 49.7577 33.7264C49.8623 33.8206 49.9358 33.9393 49.9726 34.0679C50.0095 34.1964 50.0091 34.3319 49.9715 34.4602C49.9339 34.5887 49.8597 34.707 49.7545 34.8007C49.6491 34.8945 49.517 34.9595 49.3722 34.9859L48.8257 35.0855L48.6216 35.6021L45.1386 44.4136C45.1386 44.4137 45.1386 44.4138 45.1386 44.4138C44.9556 44.8764 44.6327 45.2774 44.209 45.5617C43.785 45.8463 43.2808 45.9999 42.7628 46C42.7628 46 42.7628 46 42.7627 46H33.237L38.0156 29.2832ZM38.6806 28.4561L38.0017 28.8334L37.3221 28.4574C37.0585 28.3116 36.8557 28.0868 36.7412 27.8217C36.6269 27.5569 36.6056 27.2638 36.6797 26.987C36.7538 26.7098 36.9206 26.4606 37.1586 26.2805C37.397 26.1001 37.6923 26.0003 37.9987 26C38.3051 25.9997 38.6007 26.0989 38.8394 26.2788C39.0778 26.4584 39.2451 26.7074 39.3199 26.9844C39.3946 27.2611 39.3739 27.5542 39.2601 27.8192C39.1462 28.0846 38.9439 28.3098 38.6806 28.4561Z" stroke="#05FF00" stroke-width="2"/>
</g>
<defs>
<filter id="filter0_dd_347_552" x="0" y="0" width="76" height="72" filterUnits="userSpaceOnUse" color-interpolation-filters="sRGB">
<feFlood flood-opacity="0" result="BackgroundImageFix"/>
<feColorMatrix in="SourceAlpha" type="matrix" values="0 0 0 0 0 0 0 0 0 0 0 0 0 0 0 0 0 0 127 0" result="hardAlpha"/>
<feOffset/>
<feGaussianBlur stdDeviation="12.5"/>
<feColorMatrix type="matrix" values="0 0 0 0 0.02 0 0 0 0 1 0 0 0 0 0 0 0 0 1 0"/>
<feBlend mode="normal" in2="BackgroundImageFix" result="effect1_dropShadow_347_552"/>
<feColorMatrix in="SourceAlpha" type="matrix" values="0 0 0 0 0 0 0 0 0 0 0 0 0 0 0 0 0 0 127 0" result="hardAlpha"/>
<feOffset/>
<feGaussianBlur stdDeviation="12.5"/>
<feColorMatrix type="matrix" values="0 0 0 0 0.02 0 0 0 0 1 0 0 0 0 0 0 0 0 1 0"/>
<feBlend mode="normal" in2="effect1_dropShadow_347_552" result="effect2_dropShadow_347_552"/>
<feBlend mode="normal" in="SourceGraphic" in2="effect2_dropShadow_347_552" result="shape"/>
</filter>
</defs>
</svg>
