<svg width="74" height="67" viewBox="0 0 74 67" fill="none" xmlns="http://www.w3.org/2000/svg">
<g id="Group 35" filter="url(#filter0_dd_347_548)">
<path id="Vector" d="M32.2 36.0834H31.2V37.0834V38.6304C30.6185 38.395 29.9002 38.0398 29.1861 37.5233C27.5915 36.3698 26 34.4092 26 31.042C26 28.2565 28.257 26 31.042 26H35.758C38.5435 26 40.8 28.257 40.8 31.042C40.8 33.8257 38.5429 36.0834 35.758 36.0834H32.2Z" stroke="#FF00E6" stroke-width="2"/>
<path id="Vector_2" d="M45.1662 39.621C44.5458 40.0127 43.9196 40.2887 43.4 40.4768V39.4664V38.4664H42.4L40.6336 38.4664L40.6322 38.4664C40.2826 38.4669 39.9377 38.4194 39.6065 38.3275C42.2194 36.9432 44 34.1969 44 31.0334C44 30.9552 43.9985 30.8773 43.9954 30.7998H44.1669C44.1669 30.7998 44.167 30.7998 44.167 30.7998C45.1836 30.8 46.1585 31.2039 46.8773 31.9228C47.5962 32.6417 48 33.6168 48 34.6334C48 37.1879 46.6246 38.7003 45.1662 39.621Z" stroke="#FF00E6" stroke-width="2"/>
</g>
<defs>
<filter id="filter0_dd_347_548" x="0" y="0" width="74" height="66.7998" filterUnits="userSpaceOnUse" color-interpolation-filters="sRGB">
<feFlood flood-opacity="0" result="BackgroundImageFix"/>
<feColorMatrix in="SourceAlpha" type="matrix" values="0 0 0 0 0 0 0 0 0 0 0 0 0 0 0 0 0 0 127 0" result="hardAlpha"/>
<feOffset/>
<feGaussianBlur stdDeviation="12.5"/>
<feColorMatrix type="matrix" values="0 0 0 0 1 0 0 0 0 0 0 0 0 0 0.9 0 0 0 1 0"/>
<feBlend mode="normal" in2="BackgroundImageFix" result="effect1_dropShadow_347_548"/>
<feColorMatrix in="SourceAlpha" type="matrix" values="0 0 0 0 0 0 0 0 0 0 0 0 0 0 0 0 0 0 127 0" result="hardAlpha"/>
<feOffset/>
<feGaussianBlur stdDeviation="12.5"/>
<feColorMatrix type="matrix" values="0 0 0 0 1 0 0 0 0 0 0 0 0 0 0.9 0 0 0 1 0"/>
<feBlend mode="normal" in2="effect1_dropShadow_347_548" result="effect2_dropShadow_347_548"/>
<feBlend mode="normal" in="SourceGraphic" in2="effect2_dropShadow_347_548" result="shape"/>
</filter>
</defs>
</svg>
