<svg width="24" height="17" viewBox="0 0 24 17" fill="none" xmlns="http://www.w3.org/2000/svg">
<g id="Group 35">
<path id="Vector" d="M0 6.042C0 2.7042 2.7048 0 6.042 0H10.758C14.0958 0 16.8 2.7048 16.8 6.042C16.8 9.378 14.0952 12.0834 10.758 12.0834H7.2V15C7.2 15 0 13.542 0 6.042Z" fill="#DEC5EA"/>
<path id="Vector_2" d="M12.2862 13.1202C13.1855 13.9857 14.3855 14.4684 15.6336 14.4666H17.4V16.8C17.4 16.8 24 15.6336 24 9.6336C24 8.35176 23.4908 7.1224 22.5845 6.21594C21.6781 5.30949 20.4488 4.80016 19.167 4.8H17.841C17.9448 5.1936 18 5.607 18 6.0336C18 9.51 15.552 12.4152 12.2862 13.1202Z" fill="#DEC5EA"/>
</g>
</svg>
