<svg width="25" height="23" viewBox="0 0 25 23" fill="none" xmlns="http://www.w3.org/2000/svg">
<path id="Vector" d="M23.5186 2.54077L21.9147 1.86323V12.7885L24.8233 5.69858C25.3141 4.46449 24.7515 3.04892 23.5186 2.54077ZM0.177572 7.01736L6.11458 21.4755C6.2894 21.9154 6.58761 22.2941 6.97253 22.5649C7.35745 22.8358 7.81229 22.987 8.28111 23C8.59232 23 8.91551 22.9395 9.22672 22.8064L18.0484 19.1163C18.9462 18.7412 19.4968 17.8459 19.5207 16.9506C19.5327 16.636 19.4728 16.2851 19.3651 15.9705L13.3802 1.51236C13.211 1.06957 12.9139 0.688501 12.5275 0.418763C12.1411 0.149025 11.6833 0.00310668 11.2137 0C10.9025 0 10.5913 0.0725935 10.292 0.181484L1.48228 3.87165C0.896672 4.11404 0.430268 4.58158 0.185607 5.17147C-0.059054 5.76136 -0.0619441 6.42532 0.177572 7.01736ZM19.5088 2.41978C19.5088 1.77801 19.2565 1.16253 18.8076 0.708737C18.3586 0.25494 17.7497 0 17.1148 0H15.3792L19.5088 10.0905" fill="#DEC5EA"/>
</svg>
