<svg width="24" height="24" viewBox="0 0 24 24" fill="none" xmlns="http://www.w3.org/2000/svg">
<path id="Vector" d="M20.6675 0.000240868C21.1576 0.000383679 21.6416 0.108572 22.0852 0.317101C22.5287 0.525629 22.9207 0.829368 23.2334 1.20668C23.5461 1.584 23.7717 2.0256 23.8942 2.50005C24.0167 2.9745 24.033 3.47012 23.9421 3.9516C23.8511 4.43308 23.6551 4.88859 23.3679 5.28567C23.0807 5.68275 22.7095 6.01165 22.2807 6.24892C21.8519 6.4862 21.3761 6.62603 20.887 6.65844C20.398 6.69085 19.9078 6.61505 19.4515 6.43644L13.3765 12.5087C14.3752 13.955 14.8184 15.7131 14.6246 17.4598L18.1234 18.509C18.6186 17.925 19.2998 17.5292 20.0525 17.3883C20.8053 17.2473 21.5836 17.3698 22.2566 17.7351C22.9296 18.1004 23.4563 18.6862 23.7481 19.3941C24.04 20.1019 24.0791 20.8887 23.859 21.622C23.6388 22.3553 23.1729 22.9905 22.5394 23.4208C21.906 23.8511 21.1437 24.0501 20.3807 23.9846C19.6177 23.919 18.9005 23.5928 18.3498 23.0607C17.7991 22.5287 17.4484 21.8233 17.3567 21.0632L13.8592 20.0127C13.1199 21.4547 11.9236 22.6111 10.4573 23.3014C8.99107 23.9917 7.33738 24.1769 5.75467 23.8281C4.17196 23.4794 2.74938 22.6163 1.70921 21.3737C0.669038 20.1311 0.0698745 18.579 0.00533348 16.9599L0 16.664L0.00533348 16.3694C0.0573019 15.0717 0.453067 13.8112 1.15215 12.7166C1.85124 11.6221 2.82856 10.7328 3.98416 10.1398L2.93345 6.64174C2.16479 6.54947 1.45228 6.19239 0.918398 5.63186C0.384514 5.07133 0.0626048 4.34237 0.00800038 3.57028L0 3.33299L0.00666709 3.11436C0.0427439 2.56511 0.21433 2.03334 0.506099 1.56655C0.797868 1.09976 1.20074 0.712494 1.67872 0.439336C2.1567 0.166178 2.69491 0.0156345 3.24527 0.00115369C3.79564 -0.0133272 4.34103 0.108705 4.83272 0.35635C5.32441 0.603995 5.74709 0.969542 6.06301 1.42034C6.37893 1.87114 6.57826 2.39315 6.64318 2.93975C6.7081 3.48634 6.6366 4.04051 6.43506 4.55274C6.23353 5.06497 5.90823 5.51932 5.48822 5.87521L6.5376 9.37459C8.28475 9.18085 10.0432 9.62391 11.4898 10.6224L17.5634 4.54878C17.4381 4.22989 17.3629 3.89351 17.3407 3.55162L17.334 3.33299L17.3407 3.11436C17.3962 2.27004 17.7709 1.47844 18.3887 0.900136C19.0065 0.321828 19.8212 0.000110563 20.6675 0.000240868Z" fill="#DEC5EA"/>
</svg>
