<svg width="24" height="24" viewBox="0 0 24 24" fill="none" xmlns="http://www.w3.org/2000/svg">
<path id="Vector" d="M23.925 10.2132C23.8282 9.78451 23.5607 9.3884 23.2556 9.22206C23.1587 9.16805 22.5586 9.1046 21.9157 9.07717C20.8391 9.02915 20.7208 9.00772 20.3779 8.8088C19.837 8.49243 19.6922 8.14947 19.687 7.22778C19.6819 5.459 18.9473 3.81453 17.496 2.33554C16.4622 1.2801 15.305 0.566754 13.9866 0.165498C13.6703 0.0686131 12.9631 0.0368899 10.5955 0.0103109C6.877 -0.0325584 6.05238 0.0420342 4.788 0.546177C2.45727 1.46787 0.785733 3.42957 0.175405 5.93656C0.0631119 6.40812 0.0356814 7.16348 0.00910818 11.5044C-0.0226083 16.9437 0.0142515 17.7419 0.351989 18.8188C1.18776 21.4767 3.56135 23.4435 5.94523 23.8722C6.73814 24.0171 16.5154 24.0488 17.5174 23.9151C19.2584 23.6793 20.6248 22.9771 21.9055 21.6696C22.8321 20.7213 23.4107 19.6976 23.7913 18.3421C24.0536 17.399 24.0322 10.6899 23.925 10.2132ZM6.66785 6.80509C7.08616 6.38155 7.2036 6.36525 9.81806 6.36525C12.1702 6.36525 12.2499 6.3704 12.5937 6.54788C13.0917 6.79995 13.3112 7.15319 13.3112 7.72164C13.3112 8.23093 13.1071 8.58931 12.652 8.87911C12.406 9.0343 12.2611 9.04544 9.95693 9.05573C8.5374 9.06602 7.40161 9.0343 7.23531 8.99143C6.34554 8.73936 6.0138 7.46442 6.66699 6.80509H6.66785ZM16.944 17.5113L16.1459 17.6399L11.9936 17.6879C8.34539 17.7308 7.31675 17.6665 7.12388 17.5807C6.74328 17.4144 6.38411 16.954 6.32582 16.5416C6.26668 16.1506 6.46469 15.6147 6.76471 15.3412C7.14531 14.9983 7.31075 14.988 11.9774 14.982C16.7777 14.9768 16.7511 14.9768 17.2063 15.4004C17.8543 16.0057 17.7155 17.0723 16.944 17.5113Z" fill="#DEC5EA"/>
</svg>
