<svg width="26" height="22" viewBox="0 0 26 22" fill="none" xmlns="http://www.w3.org/2000/svg">
<path id="Vector" d="M14.1664 4.33018C14.6205 4.07781 14.9765 3.68524 15.179 3.21374C15.3814 2.74225 15.4188 2.21836 15.2853 1.72385C15.1519 1.22933 14.8551 0.792024 14.4412 0.480174C14.0274 0.168324 13.5198 -0.000518102 12.9977 1.1943e-06C12.4756 0.000520491 11.9684 0.170372 11.5552 0.483045C11.142 0.795718 10.8461 1.23362 10.7137 1.72839C10.5812 2.22317 10.6197 2.74698 10.8231 3.21808C11.0265 3.68917 11.3834 4.08103 11.8381 4.33249L11.8262 4.35333C11.0521 5.93621 9.97659 8.20341 8.31605 9.05448C6.95216 9.7527 4.99496 9.40186 3.54125 9.14017C3.51793 8.81631 3.40243 8.50534 3.20785 8.24254C3.01327 7.97974 2.7474 7.77563 2.44041 7.65337C2.13343 7.53111 1.79761 7.4956 1.47107 7.55086C1.14452 7.60612 0.840323 7.74995 0.592985 7.96601C0.345647 8.18208 0.165073 8.46174 0.0717511 8.77326C-0.021571 9.08478 -0.0239047 9.41569 0.0650145 9.72845C0.153934 10.0412 0.330546 10.3233 0.574813 10.5427C0.819079 10.7621 1.12122 10.91 1.44695 10.9697L4.93114 19.7814C5.18953 20.4347 5.6435 20.9961 6.23345 21.3921C6.8234 21.788 7.52176 21.9999 8.23686 22H17.7628C18.4779 21.9999 19.1763 21.788 19.7662 21.3921C20.3562 20.9961 20.8102 20.4347 21.0685 19.7814L24.5515 10.9697C24.8752 10.9107 25.1757 10.7645 25.4194 10.5476C25.6631 10.3306 25.8403 10.0515 25.9311 9.74149C26.022 9.43145 26.023 9.10275 25.9339 8.79222C25.8448 8.48168 25.6692 8.20158 25.4268 7.98331C25.1844 7.76503 24.8847 7.61721 24.5614 7.55639C24.2381 7.49558 23.9038 7.52418 23.5962 7.63899C23.2885 7.7538 23.0195 7.95029 22.8194 8.20643C22.6193 8.46258 22.4959 8.76826 22.4632 9.08922C20.9752 9.27796 19.057 9.51881 17.6836 8.81595C16.0562 7.98225 14.9653 5.87136 14.1664 4.33018Z" fill="#DEC5EA"/>
</svg>
